#!OML:ASF E:\Style4\Style4.ASF
:FULLY-SPECIFIED
:DEGREES
2209
root 0.303567 17.6091 -1.73702 -0.343161 -2.66486 2.34174
lowerback 7.76375 0.721601 -5.56997
upperback 3.42984 0.52872 -2.24777
thorax -0.826351 0.22851 0.760471
lowerneck -3.4919 -2.40476 -6.23392
upperneck -4.73072 -2.66946 14.3369
head -0.49617 -1.34136 5.32566
rclavicle 2.78299e-015 4.77083e-015
rhumerus 12.2647 15.3944 -22.0877
rradius 124.953
rwrist -74.7573
rhand -0.56403 14.0136
rfingers 7.12502
rthumb 25.05 -14.3637
lclavicle 2.78299e-015 4.77083e-015
lhumerus 27.9632 -23.3957 45.2148
lradius 73.1858
lwrist 58.3555
lhand -0.152986 27.4573
lfingers 7.12502
lthumb 25.4438 55.779
rfemur -20.7393 -0.457247 15.2002
rtibia 41.4153
rfoot -15.7202 -13.1908
rtoes -16.6927
lfemur -15.9911 0.595021 -22.6022
ltibia 34.8441
lfoot -19.3879 9.4567
ltoes -10.6302
2210
root 0.297226 17.6182 -1.73236 -0.352862 -2.55856 2.21893
lowerback 7.78421 0.793468 -5.38699
upperback 3.44259 0.63616 -2.25144
thorax -0.829109 0.283651 0.64541
lowerneck -3.52935 -2.5261 -6.15122
upperneck -4.75378 -2.83312 14.311
head -0.48126 -1.42318 5.30068
rclavicle 1.19271e-015 1.59028e-014
rhumerus 13.1041 13.659 -22.2563
rradius 124.579
rwrist -74.637
rhand -0.360928 14.0519
rfingers 7.12502
rthumb 25.2446 -14.2981
lclavicle 1.19271e-015 1.59028e-014
lhumerus 27.4522 -24.6897 45.0067
lradius 73.6395
lwrist 57.7503
lhand -0.319489 27.0245
lfingers 7.12502
lthumb 25.2843 55.3689
rfemur -20.6847 -0.564159 15.3512
rtibia 41.4016
rfoot -15.5941 -13.148
rtoes -16.5808
lfemur -15.8637 0.495692 -22.4532
ltibia 34.6587
lfoot -19.2845 9.62651
ltoes -11.383
2211
root 0.288937 17.627 -1.72902 -0.338034 -2.48215 2.18536
lowerback 7.81745 0.856762 -5.33348
upperback 3.42259 0.720143 -2.27507
thorax -0.871753 0.327347 0.583478
lowerneck -3.63771 -2.63537 -6.10865
upperneck -4.65583 -2.98957 14.3017
head -0.419384 -1.49481 5.28541
rclavicle 2.08724e-015 -2.8625e-014
rhumerus 14.0404 12.0333 -22.5433
rradius 124.05
rwrist -74.3192
rhand -0.105049 14.1333
rfingers 7.12502
rthumb 25.4898 -14.1819
lclavicle 2.08724e-015 -2.8625e-014
lhumerus 26.849 -25.8141 44.8605
lradius 74.1678
lwrist 57.0085
lhand -0.0124689 27.044
lfingers 7.12502
lthumb 25.5784 55.3465
rfemur -20.6779 -0.605042 15.4047
rtibia 41.3773
rfoot -15.4653 -13.1219
rtoes -16.4301
lfemur -15.7935 0.433153 -22.389
ltibia 34.4788
lfoot -19.1981 9.75878
ltoes -12.1123
2212
root 0.279222 17.6349 -1.72666 -0.283708 -2.37437 2.15408
lowerback 7.82235 0.905553 -5.26838
upperback 3.38583 0.787084 -2.30053
thorax -0.914944 0.362883 0.514792
lowerneck -3.76544 -2.74483 -6.223
upperneck -4.53869 -3.14029 14.4376
head -0.343068 -1.56067 5.34109
rclavicle -1.0635e-014 -1.66979e-014
rhumerus 14.9892 10.4118 -22.9071
rradius 123.435
rwrist -74.0531
rhand 0.349601 14.2182
rfingers 7.12502
rthumb 25.9252 -14.034
lclavicle -1.0635e-014 -1.66979e-014
lhumerus 26.2452 -26.969 44.6577
lradius 74.7655
lwrist 56.5554
lhand 0.21736 27.0274
lfingers 7.12502
lthumb 25.7985 55.2981
rfemur -20.6985 -0.686154 15.4583
rtibia 41.3324
rfoot -15.2894 -13.0776
rtoes -16.3709
lfemur -15.7645 0.370022 -22.3232
ltibia 34.2875
lfoot -19.0804 9.71732
ltoes -12.0566
2213
root 0.269275 17.6429 -1.72379 -0.225976 -2.22127 2.1868
lowerback 7.84524 0.941079 -5.25515
upperback 3.34332 0.83105 -2.33131
thorax -0.973161 0.386926 0.471167
lowerneck -3.8101 -2.83277 -6.20784
upperneck -4.54202 -3.25847 14.4197
head -0.324816 -1.61797 5.33007
rclavicle -6.36111e-015 2.78299e-014
rhumerus 15.9218 8.88043 -23.2595
rradius 122.831
rwrist -74.1234
rhand 0.649987 14.3621
rfingers 7.12502
rthumb 26.2128 -13.8477
lclavicle -6.36111e-015 2.78299e-014
lhumerus 25.6155 -28.0558 44.5455
lradius 75.4387
lwrist 56.0007
lhand 0.682126 27.3335
lfingers 7.12502
lthumb 26.2436 55.5387
rfemur -20.6911 -0.795837 15.4423
rtibia 41.2591
rfoot -15.0916 -13.1315
rtoes -16.843
lfemur -15.7088 0.251587 -22.3274
ltibia 34.0559
lfoot -18.9187 9.693
ltoes -11.7948
2214
root 0.259007 17.6539 -1.71962 -0.157006 -2.04926 2.18696
lowerback 7.82809 0.999666 -5.16241
upperback 3.31353 0.914747 -2.37843
thorax -0.996655 0.430616 0.363502
lowerneck -3.75805 -2.94509 -6.04046
upperneck -4.65985 -3.40687 14.3097
head -0.357989 -1.69905 5.26678
rclavicle 4.27387e-015 -2.46493e-014
rhumerus 16.7306 7.36463 -23.6669
rradius 122.196
rwrist -74.2738
rhand 0.784733 14.4223
rfingers 7.12502
rthumb 26.3418 -13.7683
lclavicle 4.27387e-015 -2.46493e-014
lhumerus 25.056 -29.2113 44.4383
lradius 76.1895
lwrist 55.7155
lhand 1.04064 27.6126
lfingers 7.12502
lthumb 26.5867 55.7663
rfemur -20.6631 -0.912695 15.4552
rtibia 41.1435
rfoot -14.9952 -13.1153
rtoes -16.8231
lfemur -15.6426 0.10215 -22.2963
ltibia 33.7858
lfoot -18.7782 9.68907
ltoes -11.8285
2215
root 0.250775 17.667 -1.71192 -0.106812 -1.90976 2.18454
lowerback 7.7506 1.06488 -5.0582
upperback 3.32832 1.01465 -2.42647
thorax -0.940639 0.480386 0.248526
lowerneck -3.80419 -3.06954 -5.98927
upperneck -4.7366 -3.56663 14.3592
head -0.355584 -1.78013 5.27038
rclavicle 6.26172e-015 -1.59028e-015
rhumerus 17.5722 5.89341 -24.1817
rradius 121.495
rwrist -74.2219
rhand 0.70813 14.3221
rfingers 7.12502
rthumb 26.2685 -13.8794
lclavicle 6.26172e-015 -1.59028e-015
lhumerus 24.5321 -30.4557 44.2177
lradius 76.9104
lwrist 55.5915
lhand 1.16556 27.4194
lfingers 7.12502
lthumb 26.7063 55.555
rfemur -20.5935 -0.942973 15.4444
rtibia 40.9999
rfoot -14.9697 -12.9908
rtoes -16.1556
lfemur -15.5044 0.00355538 -22.2691
ltibia 33.463
lfoot -18.6083 9.64477
ltoes -11.7829
2216
root 0.241473 17.6803 -1.70231 -0.0967381 -1.74099 2.24181
lowerback 7.70742 1.09537 -5.02689
upperback 3.34676 1.06098 -2.46998
thorax -0.898294 0.503125 0.18311
lowerneck -3.87962 -3.17353 -6.07942
upperneck -4.74902 -3.69811 14.5241
head -0.326478 -1.84259 5.33282
rclavicle -6.06293e-015 1.03368e-014
rhumerus 18.5254 4.56817 -24.7027
rradius 120.698
rwrist -74.1392
rhand 0.586119 14.4447
rfingers 7.12502
rthumb 26.1517 -13.7742
lclavicle -6.06293e-015 1.03368e-014
lhumerus 23.9076 -31.7031 44.0256
lradius 77.5728
lwrist 55.19
lhand 1.47192 26.9863
lfingers 7.12502
lthumb 26.9994 55.0768
rfemur -20.4524 -1.06795 15.3796
rtibia 40.8501
rfoot -14.9268 -12.9329
rtoes -16.3172
lfemur -15.2894 -0.0880864 -22.3116
ltibia 33.1136
lfoot -18.4799 9.60663
ltoes -11.8407
